<?xml version="1.0" encoding="UTF-8"?>
<svg version="1.1" xmlns="http://www.w3.org/2000/svg" width="500" height="500">
<path d="M0 0 C27.63329792 -0.70628237 70.7114798 7.9790237 91.7109375 26.8828125 C92.06800781 27.30304688 92.42507812 27.72328125 92.79296875 28.15625 C89.83794088 30.22729518 86.8191721 32.19093509 83.79296875 34.15625 C82.82786377 34.8066626 82.82786377 34.8066626 81.84326172 35.47021484 C79.67913266 36.918459 77.48949836 38.32023581 75.29296875 39.71875 C74.59373291 40.19683105 73.89449707 40.67491211 73.17407227 41.16748047 C68.12145823 44.30796118 68.12145823 44.30796118 64.71923828 43.91943359 C62.33721695 43.13413389 60.09026871 42.16281958 57.79296875 41.15625 C55.7128514 40.4208259 53.62635947 39.70328223 51.53515625 39 C50.42309814 38.61835693 49.31104004 38.23671387 48.1652832 37.84350586 C22.34861608 29.07935562 -3.28435743 23.70069074 -28.83203125 36.21875 C-45.50768584 45.73607482 -55.35628857 60.12612502 -60.82421875 78.33203125 C-62.35305778 84.08219713 -62.6708022 89.47826711 -62.58203125 95.40625 C-62.57042969 96.4156665 -62.55882813 97.42508301 -62.546875 98.46508789 C-62.36836449 106.67591485 -61.5297316 114.24636654 -59.20703125 122.15625 C-58.95953125 123.00171387 -58.71203125 123.84717773 -58.45703125 124.71826172 C-49.77511217 153.62282216 -36.41443337 181.40925537 -21.9765625 207.859375 C-20.25478688 211.06727483 -18.66281475 214.31450682 -17.08203125 217.59375 C-4.22258523 243.48879883 13.19378704 277.16351146 37.140625 294.89453125 C37.95853516 295.51908203 37.95853516 295.51908203 38.79296875 296.15625 C38.79296875 296.81625 38.79296875 297.47625 38.79296875 298.15625 C39.33824219 298.38699219 39.88351563 298.61773437 40.4453125 298.85546875 C43.43752571 300.51338389 45.81732042 302.70655661 48.35546875 304.96875 C62.23973041 316.99655864 78.22446974 326.49476991 93.79296875 336.15625 C92.0413325 341.41115876 86.32006935 342.95591721 81.60546875 345.40625 C80.0421582 346.25703125 80.0421582 346.25703125 78.44726562 347.125 C77.43341797 347.65609375 76.41957031 348.1871875 75.375 348.734375 C73.98631714 349.46769043 73.98631714 349.46769043 72.56958008 350.21582031 C69.17086737 351.36695382 67.23023618 351.09678567 63.79296875 350.15625 C61.83349609 349.17578125 61.83349609 349.17578125 60.12890625 347.96875 C59.16754761 347.29875977 59.16754761 347.29875977 58.18676758 346.61523438 C57.52056396 346.13376953 56.85436035 345.65230469 56.16796875 345.15625 C55.46502686 344.65931641 54.76208496 344.16238281 54.0378418 343.65039062 C51.94682912 342.16492761 49.86837814 340.66341076 47.79296875 339.15625 C47.23206543 338.75277344 46.67116211 338.34929687 46.09326172 337.93359375 C37.9760518 332.07838986 30.36274133 325.69015896 22.79296875 319.15625 C22.04015625 318.516875 21.28734375 317.8775 20.51171875 317.21875 C11.65962355 309.63123983 4.00388273 301.30715607 -3.20703125 292.15625 C-3.99980469 291.16882813 -4.79257813 290.18140625 -5.609375 289.1640625 C-21.87034226 268.56169956 -34.52139152 245.38311623 -46.48339844 222.10620117 C-47.57186088 219.98853701 -48.66272027 217.8721212 -49.75390625 215.75585938 C-56.91306496 201.85653298 -64.01707945 187.96499891 -70.33203125 173.65625 C-70.84773682 172.48843994 -71.36344238 171.32062988 -71.89477539 170.11743164 C-81.78052463 147.56277952 -89.92856222 123.96653969 -91.20703125 99.15625 C-91.24828125 98.44855469 -91.28953125 97.74085938 -91.33203125 97.01171875 C-92.08906421 71.50917107 -81.66003393 47.03415248 -64.51635742 28.53955078 C-57.03948718 20.70136353 -48.9021296 14.96271825 -39.20703125 10.15625 C-38.35625 9.71410156 -37.50546875 9.27195312 -36.62890625 8.81640625 C-25.20865489 3.1917615 -12.64847319 0.61624717 0 0 Z " fill="#D4BC39" transform="translate(148.20703125,46.84375)"/>
<path d="M0 0 C2.64133627 1.4040386 5.02525309 3.04793564 7.4375 4.8125 C8.12634277 5.30242432 8.81518555 5.79234863 9.52490234 6.29711914 C11.694754 7.84951131 13.84836009 9.42248845 16 11 C16.68368652 11.49532227 17.36737305 11.99064453 18.07177734 12.50097656 C41.25753066 29.32386888 41.25753066 29.32386888 50 39 C50 39.66 50 40.32 50 41 C51.485 41.495 51.485 41.495 53 42 C77.11827147 64.74195707 93.21361073 97.50348861 108.54199219 126.27197266 C109.85205408 128.72318358 111.17678288 131.16560473 112.5078125 133.60546875 C136.20966595 177.37395187 164.04634458 231.71711955 149.875 282.5625 C142.82321548 305.95566958 126.34694549 326.04899387 105.12548828 338.06103516 C81.39088218 350.61257353 52.8941087 352.67154095 27 346 C26.25331055 345.81195801 25.50662109 345.62391602 24.73730469 345.43017578 C5.71007418 340.50285218 -13.05691866 332.99377064 -30 323 C-26.32394284 318.79594547 -21.79656858 316.21924362 -17.0625 313.375 C-16.26392578 312.88515625 -15.46535156 312.3953125 -14.64257812 311.890625 C-4.3838541 305.6690956 -4.3838541 305.6690956 -0.44238281 306.61157227 C0.9135498 307.20796509 0.9135498 307.20796509 2.296875 307.81640625 C3.32546631 308.24904785 4.35405762 308.68168945 5.41381836 309.12744141 C6.5147583 309.60101074 7.61569824 310.07458008 8.75 310.5625 C34.1340802 320.86292471 60.60053719 325.74125378 86.68359375 315.5625 C102.29950409 308.44725498 114.38371925 295.65759951 120.96875 279.7734375 C121.3090625 278.85820312 121.649375 277.94296875 122 277 C122.3196875 276.14664062 122.639375 275.29328125 122.96875 274.4140625 C135.30537667 234.54848187 108.76942955 187.23739784 90.88796997 152.86224365 C89.19898317 149.66408331 87.4866527 146.47985258 85.76147461 143.30102539 C83.99199967 139.98500728 82.32707986 136.63184522 80.6875 133.25 C67.58316907 106.89309911 51.51481406 81.20827256 31 60 C30.2889209 59.25024902 30.2889209 59.25024902 29.56347656 58.48535156 C22.83475813 51.39704898 15.77076056 45.12518941 7.86035156 39.35986328 C5.81984285 37.86831032 3.79709341 36.35417196 1.7734375 34.83984375 C-6.48282358 28.71962929 -14.77946508 23.07018926 -23.87011719 18.24609375 C-25.9140625 17.12109375 -25.9140625 17.12109375 -29 15 C-29 13.68 -29 12.36 -29 11 C-25.49621939 8.94847079 -21.96971566 6.93961084 -18.4375 4.9375 C-17.44685547 4.35677734 -16.45621094 3.77605469 -15.43554688 3.17773438 C-5.95282537 -2.14645145 -5.95282537 -2.14645145 0 0 Z " fill="#3FA984" transform="translate(292,104)"/>
<path d="M0 0 C13.23085679 14.01782224 21.06123428 30.05819597 25.25 48.75 C25.4243457 49.52359863 25.59869141 50.29719727 25.77832031 51.09423828 C32.10367108 86.70871325 17.40725803 122.93767742 2.38378906 154.34130859 C0.92260098 157.44554666 -0.42771938 160.58440765 -1.75 163.75 C-2.74 163.75 -3.73 163.75 -4.75 163.75 C-6.59127192 160.28544627 -8.4240571 156.81654924 -10.24926758 153.34350586 C-11.17543815 151.58539649 -12.10818577 149.830757 -13.04101562 148.07617188 C-13.9159668 146.40844727 -13.9159668 146.40844727 -14.80859375 144.70703125 C-15.34798584 143.68585205 -15.88737793 142.66467285 -16.44311523 141.61254883 C-18.07823751 138.03104151 -19.19574693 135.37717897 -18.13256836 131.49609375 C-17.78846924 130.73425781 -17.44437012 129.97242188 -17.08984375 129.1875 C-16.71093994 128.31843018 -16.33203613 127.44936035 -15.94165039 126.55395508 C-15.52778076 125.6286499 -15.11391113 124.70334473 -14.6875 123.75 C-10.06471854 112.95870298 -6.62395816 102.12076465 -3.75 90.75 C-3.34974609 89.27273437 -3.34974609 89.27273437 -2.94140625 87.765625 C1.36907175 69.09679613 -1.18968448 48.25157038 -10.765625 31.71875 C-13.9740202 26.91878868 -17.64957216 22.80024778 -21.75 18.75 C-22.67039062 17.79673828 -22.67039062 17.79673828 -23.609375 16.82421875 C-36.15717338 4.73221647 -53.82531204 0.75 -70.75 0.75 C-81.40678908 1.41866128 -91.55255959 3.56511221 -101.75 6.75 C-102.48669922 6.9778418 -103.22339844 7.20568359 -103.98242188 7.44042969 C-139.71225291 18.70083023 -173.40792521 39.07582718 -203.75 60.75 C-204.76320313 61.46800781 -205.77640625 62.18601562 -206.8203125 62.92578125 C-216.63370785 69.96463725 -225.93142606 77.49655077 -234.75 85.75 C-235.68714844 86.62140625 -236.62429687 87.4928125 -237.58984375 88.390625 C-255.85080763 105.76818904 -268.06949825 127.54394862 -280.35449219 149.28369141 C-282.39127748 152.88334239 -284.4452711 156.47307199 -286.5 160.0625 C-287.13421875 161.17238281 -287.7684375 162.28226563 -288.421875 163.42578125 C-289.07929688 164.57626953 -289.07929688 164.57626953 -289.75 165.75 C-294.06861408 161.92082357 -295.98996774 156.55679005 -298.4375 151.4375 C-298.94861328 150.40431641 -299.45972656 149.37113281 -299.98632812 148.30664062 C-300.71045898 146.7994043 -300.71045898 146.7994043 -301.44921875 145.26171875 C-302.11183716 143.89213013 -302.11183716 143.89213013 -302.7878418 142.49487305 C-304.28179483 138.23288018 -304.30065144 135.00863185 -302.4921875 130.875 C-301.87601562 129.84375 -301.25984375 128.8125 -300.625 127.75 C-300.10462158 126.87516968 -300.10462158 126.87516968 -299.57373047 125.98266602 C-298.3177621 123.89320104 -297.03576482 121.82126162 -295.75 119.75 C-295.22470703 118.89647949 -294.69941406 118.04295898 -294.15820312 117.16357422 C-283.47625167 99.86505318 -272.19360338 84.15035906 -257.75 69.75 C-256.80185835 68.76970384 -255.8553105 67.78786428 -254.91015625 66.8046875 C-247.85213665 59.52414343 -240.49300903 53.06042517 -232.38183594 46.98046875 C-230.90952161 45.8702856 -229.45732795 44.73353992 -228.0078125 43.59375 C-169.55364298 -1.81412661 -66.89215455 -63.03299179 0 0 Z " fill="#AFB64E" transform="translate(418.75,74.25)"/>
<path d="M0 0 C2.64003986 2.35969875 4.08095351 4.77567858 5.6640625 7.9296875 C6.38722656 9.37021484 6.38722656 9.37021484 7.125 10.83984375 C7.62 11.84144531 8.115 12.84304688 8.625 13.875 C9.37910156 15.36580078 9.37910156 15.36580078 10.1484375 16.88671875 C10.62796875 17.84964844 11.1075 18.81257813 11.6015625 19.8046875 C12.03807129 20.68108887 12.47458008 21.55749023 12.92431641 22.46044922 C15.49823216 28.53713366 15.49823216 28.53713366 14.26245117 32.16552734 C13.86002197 32.8817627 13.45759277 33.59799805 13.04296875 34.3359375 C12.59493896 35.14538818 12.14690918 35.95483887 11.68530273 36.78881836 C10.94389038 38.06897827 10.94389038 38.06897827 10.1875 39.375 C9.68484619 40.2626001 9.18219238 41.1502002 8.66430664 42.06469727 C-0.52231922 58.09116923 -11.10576781 72.95888519 -23.6875 86.50390625 C-25.73657919 88.71566572 -27.72199481 90.96422276 -29.6875 93.25 C-35.35504285 99.73282744 -41.4267208 105.30502547 -48.14453125 110.69921875 C-49.93057854 112.13831841 -51.70164175 113.59645144 -53.44921875 115.08203125 C-67.22171281 126.73568007 -82.42924677 136.49020918 -97.89013672 145.72509766 C-100.57696047 147.34863314 -103.22692426 149.02650316 -105.87646484 150.70996094 C-146.44009308 176.42924502 -195.86493324 200.98256149 -245.32421875 190.04296875 C-270.77186483 182.8224358 -292.15127462 166.67701303 -305.06640625 143.58203125 C-305.71387983 142.3896138 -306.35864912 141.19572173 -307 140 C-307.50402344 139.07574219 -308.00804687 138.15148437 -308.52734375 137.19921875 C-317.82014363 118.58537339 -318.36179518 97.12093315 -315 77 C-314.8855957 76.27796387 -314.77119141 75.55592773 -314.65332031 74.81201172 C-310.51226095 49.54932922 -300.16563464 22.91203528 -287 1 C-282.23680836 5.41355242 -279.68385117 10.62192085 -276.6875 16.3125 C-276.12482422 17.33279297 -275.56214844 18.35308594 -274.98242188 19.40429688 C-271.05010334 26.85019256 -271.05010334 26.85019256 -270.84765625 31.49609375 C-272.55778318 36.69603902 -274.61553054 41.71154783 -276.75 46.75 C-285.98902649 69.14350739 -293.65142197 96.02261935 -285.3125 119.91015625 C-277.9824444 137.16632882 -266.74570793 150.55373697 -249.6015625 158.59375 C-221.79216216 169.74343965 -191.82814479 162.81983747 -165.13037109 151.40429688 C-99.59858104 122.00647622 -44.4510721 79.5955869 -9.49365234 16.67871094 C-7.41877793 12.95763836 -5.30767299 9.25789602 -3.1875 5.5625 C-2.24970703 3.92474609 -2.24970703 3.92474609 -1.29296875 2.25390625 C-0.86628906 1.51011719 -0.43960937 0.76632812 0 0 Z " fill="#66AD77" transform="translate(374,261)"/>
<path d="M0 0 C2.48884228 2.18670665 4.82599606 4.45115642 7.13671875 6.82421875 C7.7709375 7.42621094 8.40515625 8.02820313 9.05859375 8.6484375 C20.17157721 19.98269718 23.55302256 35.52601325 23.50244141 50.81616211 C23.35856441 58.37762447 22.13138073 64.83980336 19.13671875 71.82421875 C18.73582031 72.82453125 18.33492188 73.82484375 17.921875 74.85546875 C11.8508201 88.51094296 0.29057294 99.96812379 -13.7109375 105.38671875 C-31.59976565 111.78090218 -48.84163193 111.06108919 -66.11328125 103.26171875 C-80.09259043 95.71098985 -90.56607719 82.72384514 -95.86328125 67.82421875 C-100.7410672 50.74776294 -98.70773119 33.21119446 -90.30078125 17.69921875 C-81.82989289 3.08985941 -68.57913795 -6.05634306 -52.57421875 -10.86328125 C-34.30119619 -15.26347397 -14.98330237 -11.38567451 0 0 Z " fill="#93B363" transform="translate(288.86328125,202.17578125)"/>
<path d="M0 0 C0.99 0.495 0.99 0.495 2 1 C-0.20473845 4.30710767 -1.59874926 5.07248555 -5.0625 6.875 C-14.13161034 11.6372588 -22.93309014 16.70139804 -31.625 22.125 C-32.6773584 22.78153564 -33.7297168 23.43807129 -34.81396484 24.11450195 C-42.09875032 28.70252125 -49.12752646 33.51776349 -55.9765625 38.73046875 C-59 41 -59 41 -61.7109375 42.73828125 C-71.7187934 49.62016791 -80.25147455 57.93361578 -88.78051758 66.51977539 C-90.6880669 68.43807009 -92.60611306 70.34540059 -94.52539062 72.25195312 C-104.52021453 82.23213397 -112.95691481 92.54560439 -120.625 104.4375 C-121.2540625 105.39720703 -121.883125 106.35691406 -122.53125 107.34570312 C-126.16493536 112.94323711 -129.52598271 118.61644813 -132.65380859 124.51196289 C-134 127 -134 127 -135.67456055 129.61230469 C-137.62496751 133.12583942 -136.96963299 135.14986731 -136 139 C-134.85222161 141.86357939 -133.4928672 144.58087839 -132.0625 147.3125 C-131.52206055 148.38467773 -131.52206055 148.38467773 -130.97070312 149.47851562 C-129.52237048 152.30849894 -128.26176046 154.73823954 -126 157 C-124.35 154.03 -122.7 151.06 -121 148 C-120.34 148 -119.68 148 -119 148 C-118.92652344 147.17242187 -118.85304687 146.34484375 -118.77734375 145.4921875 C-117.80160003 141.10869561 -115.90720259 137.91174972 -113.5625 134.125 C-113.15451172 133.43664062 -112.74652344 132.74828125 -112.32617188 132.0390625 C-111.28042253 130.31946161 -110.14680382 128.65392258 -109 127 C-108.34 127 -107.68 127 -107 127 C-106.9175 126.113125 -106.835 125.22625 -106.75 124.3125 C-105.90015652 120.55902463 -104.65972191 118.74031954 -102 116 C-101.34 116 -100.68 116 -100 116 C-99.67 114.02 -99.34 112.04 -99 110 C-98.34 110 -97.68 110 -97 110 C-96.67322266 108.96552734 -96.67322266 108.96552734 -96.33984375 107.91015625 C-94.62548878 104.18655727 -92.25890394 101.49248699 -89.5625 98.4375 C-88.5836692 97.31203752 -87.60577978 96.18575551 -86.62890625 95.05859375 C-86.17016113 94.53378418 -85.71141602 94.00897461 -85.23876953 93.46826172 C-84.19120055 92.22662201 -83.22401279 90.91784096 -82.27734375 89.59765625 C-81.85582031 89.07042969 -81.43429688 88.54320312 -81 88 C-80.34 88 -79.68 88 -79 88 C-78.773125 87.443125 -78.54625 86.88625 -78.3125 86.3125 C-76.63449476 83.35601458 -74.47077106 81.28333326 -72 79 C-71.18144531 78.23429687 -70.36289063 77.46859375 -69.51953125 76.6796875 C-62.26400862 70 -62.26400862 70 -60 70 C-60 69.34 -60 68.68 -60 68 C-58.65820312 66.8425293 -58.65820312 66.8425293 -56.78125 65.57421875 C-56.09546875 65.10693359 -55.4096875 64.63964844 -54.703125 64.15820312 C-53.97609375 63.67287109 -53.2490625 63.18753906 -52.5 62.6875 C-51.45585937 61.9769043 -51.45585937 61.9769043 -50.390625 61.25195312 C-48.27133805 59.81750983 -46.13695004 58.40795867 -44 57 C-43.27039063 56.50322754 -42.54078125 56.00645508 -41.7890625 55.49462891 C-41.08523437 55.02847168 -40.38140625 54.56231445 -39.65625 54.08203125 C-39.02525391 53.65768799 -38.39425781 53.23334473 -37.74414062 52.79614258 C-36 52 -36 52 -33 53 C-33.45737549 53.31638428 -33.91475098 53.63276855 -34.38598633 53.95874023 C-43.55015166 60.31536677 -52.55286587 66.70231767 -61 74 C-61.8146875 74.70382813 -62.629375 75.40765625 -63.46875 76.1328125 C-66.01776997 78.38337127 -68.51627221 80.67760196 -71 83 C-71.93585938 83.87011719 -72.87171875 84.74023438 -73.8359375 85.63671875 C-92.09815043 103.01649478 -104.31823474 124.79171268 -116.60449219 146.53369141 C-118.64127748 150.13334239 -120.6952711 153.72307199 -122.75 157.3125 C-123.38421875 158.42238281 -124.0184375 159.53226563 -124.671875 160.67578125 C-125.32929688 161.82626953 -125.32929688 161.82626953 -126 163 C-130.31861408 159.17082357 -132.23996774 153.80679005 -134.6875 148.6875 C-135.19861328 147.65431641 -135.70972656 146.62113281 -136.23632812 145.55664062 C-136.96045898 144.0494043 -136.96045898 144.0494043 -137.69921875 142.51171875 C-138.36183716 141.14213013 -138.36183716 141.14213013 -139.0378418 139.74487305 C-140.53179483 135.48288018 -140.55065144 132.25863185 -138.7421875 128.125 C-138.12601562 127.09375 -137.50984375 126.0625 -136.875 125 C-136.35462158 124.12516968 -136.35462158 124.12516968 -135.82373047 123.23266602 C-134.5677621 121.14320104 -133.28576482 119.07126162 -132 117 C-131.47470703 116.14647949 -130.94941406 115.29295898 -130.40820312 114.41357422 C-119.72625167 97.11505318 -108.44360338 81.40035906 -94 67 C-93.05185835 66.01970384 -92.1053105 65.03786428 -91.16015625 64.0546875 C-84.10213665 56.77414343 -76.74300903 50.31042517 -68.63183594 44.23046875 C-67.15952161 43.1202856 -65.70732795 41.98353992 -64.2578125 40.84375 C-47.13326709 27.54120458 -28.20946047 16.46867874 -9.54296875 5.49853516 C-7.95486848 4.56269036 -6.37295386 3.61617091 -4.80078125 2.65380859 C-3.23483074 1.70979873 -1.62215508 0.84378228 0 0 Z " fill="#EFC949" transform="translate(255,77)"/>
<path d="M0 0 C4.76319164 4.41355242 7.31614883 9.62192085 10.3125 15.3125 C10.87517578 16.33279297 11.43785156 17.35308594 12.01757812 18.40429688 C15.94989666 25.85019256 15.94989666 25.85019256 16.15234375 30.49609375 C14.44221682 35.69603902 12.38446946 40.71154783 10.25 45.75 C4.36652866 60.01032916 -1.1693016 75.09225226 -1.09765625 90.7109375 C-1.09282227 92.57685547 -1.09282227 92.57685547 -1.08789062 94.48046875 C-1.07951172 95.76566406 -1.07113281 97.05085938 -1.0625 98.375 C-1.05798828 99.68339844 -1.05347656 100.99179687 -1.04882812 102.33984375 C-1.03707594 105.55994281 -1.02064543 108.7799477 -1 112 C-1.66 111.67 -2.32 111.34 -3 111 C-7.2415956 89.84710766 -2.40403898 67.49270152 6 48 C7.31679907 44.84318435 8.59922625 41.67357444 9.875 38.5 C10.19774902 37.73324951 10.52049805 36.96649902 10.85302734 36.17651367 C13.06156934 30.69884219 13.06156934 30.69884219 12 25 C9.5669428 19.65583623 6.4705593 14.71862245 3.42578125 9.70703125 C2 7 2 7 2 4 C1.34 4 0.68 4 0 4 C-0.309375 5.36125 -0.309375 5.36125 -0.625 6.75 C-1.62980844 10.29177159 -3.13843405 13.4125278 -4.8125 16.6875 C-7.87503859 22.68712378 -10.55223855 28.72507563 -13 35 C-13.30196289 35.76570313 -13.60392578 36.53140625 -13.91503906 37.3203125 C-23.98913281 63.0816314 -30.849713 90.32635772 -25 118 C-24.76539063 119.14082031 -24.53078125 120.28164063 -24.2890625 121.45703125 C-21.33867709 133.51571656 -14.90906581 143.82483035 -8 154 C-8.33 154.66 -8.66 155.32 -9 156 C-25.60952154 134.40762199 -32.27663683 108.97487607 -29 82 C-25.06596209 53.75905711 -14.7077287 24.47859742 0 0 Z " fill="#D4CB7A" transform="translate(87,262)"/>
<path d="M0 0 C-0.45737549 0.31638428 -0.91475098 0.63276855 -1.38598633 0.95874023 C-10.55015166 7.31536677 -19.55286587 13.70231767 -28 21 C-28.8146875 21.70382813 -29.629375 22.40765625 -30.46875 23.1328125 C-33.01776997 25.38337127 -35.51627221 27.67760196 -38 30 C-38.93585938 30.87011719 -39.87171875 31.74023438 -40.8359375 32.63671875 C-59.09815043 50.01649478 -71.31823474 71.79171268 -83.60449219 93.53369141 C-85.64127748 97.13334239 -87.6952711 100.72307199 -89.75 104.3125 C-90.38421875 105.42238281 -91.0184375 106.53226562 -91.671875 107.67578125 C-92.11015625 108.44277344 -92.5484375 109.20976562 -93 110 C-95.2841369 107.79721592 -96.79488782 105.96642998 -98 103 C-98 102.01 -98 101.02 -98 100 C-97.34 100 -96.68 100 -96 100 C-95.01 101.32 -94.02 102.64 -93 104 C-91.35 101.03 -89.7 98.06 -88 95 C-87.34 95 -86.68 95 -86 95 C-85.92652344 94.17242187 -85.85304687 93.34484375 -85.77734375 92.4921875 C-84.80160003 88.10869561 -82.90720259 84.91174972 -80.5625 81.125 C-80.15451172 80.43664062 -79.74652344 79.74828125 -79.32617188 79.0390625 C-78.28042253 77.31946161 -77.14680382 75.65392258 -76 74 C-75.34 74 -74.68 74 -74 74 C-73.9175 73.113125 -73.835 72.22625 -73.75 71.3125 C-72.90015652 67.55902463 -71.65972191 65.74031954 -69 63 C-68.34 63 -67.68 63 -67 63 C-66.67 61.02 -66.34 59.04 -66 57 C-65.34 57 -64.68 57 -64 57 C-63.78214844 56.31035156 -63.56429687 55.62070313 -63.33984375 54.91015625 C-61.62548878 51.18655727 -59.25890394 48.49248699 -56.5625 45.4375 C-55.5836692 44.31203752 -54.60577978 43.18575551 -53.62890625 42.05859375 C-53.17016113 41.53378418 -52.71141602 41.00897461 -52.23876953 40.46826172 C-51.19120055 39.22662201 -50.22401279 37.91784096 -49.27734375 36.59765625 C-48.85582031 36.07042969 -48.43429688 35.54320312 -48 35 C-47.34 35 -46.68 35 -46 35 C-45.773125 34.443125 -45.54625 33.88625 -45.3125 33.3125 C-43.63449476 30.35601458 -41.47077106 28.28333326 -39 26 C-38.18144531 25.23429687 -37.36289063 24.46859375 -36.51953125 23.6796875 C-29.26400862 17 -29.26400862 17 -27 17 C-27 16.34 -27 15.68 -27 15 C-25.65820312 13.8425293 -25.65820312 13.8425293 -23.78125 12.57421875 C-23.09546875 12.10693359 -22.4096875 11.63964844 -21.703125 11.15820312 C-20.97609375 10.67287109 -20.2490625 10.18753906 -19.5 9.6875 C-18.45585937 8.9769043 -18.45585937 8.9769043 -17.390625 8.25195312 C-15.27133805 6.81750983 -13.13695004 5.40795867 -11 4 C-10.27039063 3.50322754 -9.54078125 3.00645508 -8.7890625 2.49462891 C-8.08523437 2.02847168 -7.38140625 1.56231445 -6.65625 1.08203125 C-6.02525391 0.65768799 -5.39425781 0.23334473 -4.74414062 -0.20385742 C-3 -1 -3 -1 0 0 Z " fill="#E0C960" transform="translate(222,130)"/>
<path d="M0 0 C2.48884228 2.18670665 4.82599606 4.45115642 7.13671875 6.82421875 C7.7709375 7.42621094 8.40515625 8.02820313 9.05859375 8.6484375 C19.20426141 18.99612067 23.53623825 33.86525849 23.51171875 48.01171875 C23.5103894 49.39447998 23.5103894 49.39447998 23.5090332 50.80517578 C23.37740803 58.43676337 22.08251784 64.73951914 19.13671875 71.82421875 C18.82863281 72.59636719 18.52054687 73.36851562 18.203125 74.1640625 C17.55332173 75.73416131 16.85334522 77.28347183 16.13671875 78.82421875 C14.75498523 75.1075305 15.56122112 72.99295596 17.01171875 69.38671875 C22.10474929 56.5829112 22.10125046 40.49236804 17.3359375 27.55078125 C14.43655158 20.95869208 11.21687802 15.50156729 6.2734375 10.234375 C5.13671875 8.82421875 5.13671875 8.82421875 5.13671875 6.82421875 C4.47671875 6.82421875 3.81671875 6.82421875 3.13671875 6.82421875 C3.13671875 6.16421875 3.13671875 5.50421875 3.13671875 4.82421875 C2.55148437 4.54191406 1.96625 4.25960937 1.36328125 3.96875 C-0.68334152 2.91671408 -2.56345114 1.7690014 -4.48828125 0.51171875 C-20.98791605 -9.7777214 -36.60348907 -10.7804078 -55.39453125 -7.02734375 C-58.74168839 -6.35278585 -58.74168839 -6.35278585 -61.08203125 -5.01171875 C-63.37508247 -3.93559384 -64.52985543 -4.34241489 -66.86328125 -5.17578125 C-44.43163496 -15.27387632 -20.38781493 -15.49251421 0 0 Z " fill="#E4CD6B" transform="translate(288.86328125,202.17578125)"/>
<path d="M0 0 C2.64133279 1.40403675 5.02518295 3.04804683 7.4375 4.8125 C8.46858887 5.54521118 8.46858887 5.54521118 9.52050781 6.29272461 C11.69254078 7.84569361 13.84777166 9.41972306 16 11 C17.04148193 11.75893555 17.04148193 11.75893555 18.10400391 12.53320312 C27.00994222 19.04001641 35.62088015 25.82696558 44 33 C43.01 33.495 43.01 33.495 42 34 C41.3915625 33.48953125 40.783125 32.9790625 40.15625 32.453125 C29.34495904 23.48611308 18.26914504 14.7206137 6.2578125 7.40625 C4.31471393 6.1960156 2.55589199 4.89932992 0.75 3.5 C-3.02517492 1.44081368 -4.82433494 2.05560516 -9 3 C-11.91546711 4.27933473 -14.63304161 5.82413774 -17.375 7.4375 C-18.09816406 7.84548828 -18.82132812 8.25347656 -19.56640625 8.67382812 C-23.4129407 10.68555292 -23.4129407 10.68555292 -26 14 C-25.33613281 14.31453125 -24.67226563 14.6290625 -23.98828125 14.953125 C-19.20975896 17.26913872 -15.07018546 19.54650931 -11 23 C-10.01 23.33 -9.02 23.66 -8 24 C-8 24.66 -8 25.32 -8 26 C-7.278125 26.2475 -6.55625 26.495 -5.8125 26.75 C-2.70052111 28.13310173 -0.63568497 29.84114122 2 32 C4.21927857 33.74198868 6.45344594 35.4645206 8.6875 37.1875 C9.26822266 37.63802734 9.84894531 38.08855469 10.44726562 38.55273438 C13.58230173 40.99433695 13.58230173 40.99433695 17 43 C17 43.66 17 44.32 17 45 C17.57234375 45.25523437 18.1446875 45.51046875 18.734375 45.7734375 C21.24173733 47.13087159 23.1330456 48.71974104 25.25 50.625 C25.95640625 51.25664062 26.6628125 51.88828125 27.390625 52.5390625 C27.92171875 53.02117187 28.4528125 53.50328125 29 54 C28.67 54.99 28.34 55.98 28 57 C27.50113281 56.46632812 27.00226563 55.93265625 26.48828125 55.3828125 C20.74402396 49.42198536 14.55821054 44.31183983 7.90869141 39.40820312 C6.57925887 38.42736827 5.25369177 37.44128164 3.93115234 36.45117188 C-5.01796331 29.75595233 -13.98162693 23.49357444 -23.87011719 18.24609375 C-25.9140625 17.12109375 -25.9140625 17.12109375 -29 15 C-29 13.68 -29 12.36 -29 11 C-25.49621939 8.94847079 -21.96971566 6.93961084 -18.4375 4.9375 C-17.44685547 4.35677734 -16.45621094 3.77605469 -15.43554688 3.17773438 C-5.95282537 -2.14645145 -5.95282537 -2.14645145 0 0 Z " fill="#CDC87A" transform="translate(292,104)"/>
<path d="M0 0 C2.70343211 2.70343211 3.15970399 5.71161401 4.0625 9.3125 C4.23587891 9.97701172 4.40925781 10.64152344 4.58789062 11.32617188 C14.46061994 49.568813 -0.53531376 88.45475379 -16.86621094 122.59130859 C-18.32739902 125.69554666 -19.67771938 128.83440765 -21 132 C-21.99 132 -22.98 132 -24 132 C-25.84127192 128.53544627 -27.6740571 125.06654924 -29.49926758 121.59350586 C-30.42543815 119.83539649 -31.35818577 118.080757 -32.29101562 116.32617188 C-32.87431641 115.21435547 -33.45761719 114.10253906 -34.05859375 112.95703125 C-34.59798584 111.93585205 -35.13737793 110.91467285 -35.69311523 109.86254883 C-36.92417941 107.16607442 -37.66703317 104.9373671 -38 102 C-37.0625 99.6875 -37.0625 99.6875 -36 98 C-35.17361624 100.89234315 -35 102.88742431 -35 106 C-33.90645048 108.55547464 -33.90645048 108.55547464 -32.375 111.203125 C-31.56289063 112.67265625 -31.56289063 112.67265625 -30.734375 114.171875 C-29.87585938 115.69554687 -29.87585938 115.69554687 -29 117.25 C-28.42765625 118.28125 -27.8553125 119.3125 -27.265625 120.375 C-25.8512091 122.92094861 -24.42912568 125.46228836 -23 128 C-15.11624683 116.17437024 -9.78631948 102.1213934 -5 88.8125 C-4.63898193 87.81138184 -4.27796387 86.81026367 -3.90600586 85.77880859 C4.90583856 60.59316756 7.62970993 35.11636167 2 9 C1.78730469 7.99066406 1.57460938 6.98132813 1.35546875 5.94140625 C0.92497756 3.95619146 0.4672632 1.97688278 0 0 Z " fill="#7AB79E" transform="translate(438,106)"/>
<path d="M0 0 C0.99 0.33 1.98 0.66 3 1 C2.443125 1.49886719 1.88625 1.99773437 1.3125 2.51171875 C-11.05594553 14.14892172 -19.61253344 30.10617403 -20.31640625 47.30078125 C-20.35830078 48.27724609 -20.40019531 49.25371094 -20.44335938 50.25976562 C-20.48267578 51.26716797 -20.52199219 52.27457031 -20.5625 53.3125 C-20.60568359 54.33923828 -20.64886719 55.36597656 -20.69335938 56.42382812 C-20.79906825 58.94909569 -20.90116468 61.47445562 -21 64 C-21.66 64 -22.32 64 -23 64 C-24.64977979 46.43207469 -22.81884794 30.27376346 -13 15 C-12.34 15 -11.68 15 -11 15 C-10.67 13.68 -10.34 12.36 -10 11 C-9.34 11 -8.68 11 -8 11 C-7.9175 10.38125 -7.835 9.7625 -7.75 9.125 C-7 7 -7 7 -4.9375 5.75 C-4.298125 5.5025 -3.65875 5.255 -3 5 C-3 4.01 -3 3.02 -3 2 C-2.01 1.34 -1.02 0.68 0 0 Z " fill="#F0CD5B" transform="translate(106,89)"/>
<path d="M0 0 C0 0.66 0 1.32 0 2 C-4.4073913 1.50105004 -8.70807799 0.86884529 -13.0546875 -0.015625 C-18.99802315 -1.10236668 -24.7792679 -1.38377632 -30.8125 -1.375 C-31.85841309 -1.37483887 -32.90432617 -1.37467773 -33.98193359 -1.37451172 C-42.2755435 -1.25256574 -49.22116391 0.03147481 -57 3 C-58.99813784 3.67222735 -60.99763602 4.34046765 -63 5 C-63 4.01 -63 3.02 -63 2 C-41.0579644 -6.50416173 -22.76983262 -5.67354633 0 0 Z " fill="#EFC135" transform="translate(183,77)"/>
<path d="M0 0 C0.33 0 0.66 0 1 0 C1.04487549 0.87624023 1.08975098 1.75248047 1.13598633 2.65527344 C1.31120969 5.96596937 1.49706258 9.27573755 1.68969727 12.58544922 C1.77033389 14.00676991 1.84696036 15.42832491 1.91918945 16.85009766 C2.98711302 37.72247972 9.06838042 54.8184678 21 72 C20.67 72.66 20.34 73.32 20 74 C2.96333677 51.85233781 -2.18727195 27.45913025 0 0 Z " fill="#BEC586" transform="translate(58,344)"/>
<path d="M0 0 C0.74056641 -0.01224609 1.48113281 -0.02449219 2.24414062 -0.03710938 C6.06148096 -0.04747319 7.8096655 0.01894367 11.0625 2.1875 C10.1653125 2.16429688 9.268125 2.14109375 8.34375 2.1171875 C-13.42493491 1.80235115 -32.55480637 7.09590887 -52.88549805 14.49487305 C-54.88629472 15.17021632 -56.88243125 15.70546826 -58.9375 16.1875 C-58.6075 15.1975 -58.2775 14.2075 -57.9375 13.1875 C-55.171875 11.87109375 -55.171875 11.87109375 -51.6875 10.625 C-50.54796875 10.21121094 -49.4084375 9.79742187 -48.234375 9.37109375 C-47.14640625 8.98050781 -46.0584375 8.58992188 -44.9375 8.1875 C-44.18339844 7.86007813 -43.42929687 7.53265625 -42.65234375 7.1953125 C-38.44538869 5.63359393 -34.11172342 4.66087089 -29.75 3.625 C-28.40711914 3.29338867 -28.40711914 3.29338867 -27.03710938 2.95507812 C-18.05057894 0.80739468 -9.22462974 0.008333 0 0 Z " fill="#C4C57B" transform="translate(351.9375,72.8125)"/>
<path d="M0 0 C0.66 0.33 1.32 0.66 2 1 C-0.20473845 4.30710767 -1.59874926 5.07248555 -5.0625 6.875 C-15.54024379 12.37694294 -25.51896779 18.41240521 -35.46875 24.82421875 C-36.49484375 25.47519531 -37.5209375 26.12617187 -38.578125 26.796875 C-39.96112793 27.68391113 -39.96112793 27.68391113 -41.37207031 28.58886719 C-43.97459278 29.98635696 -46.09046854 30.59637318 -49 31 C-46.73577924 28.56578184 -44.36179515 26.81700725 -41.5625 25.03125 C-40.67618896 24.46510986 -39.78987793 23.89896973 -38.87670898 23.31567383 C-37.92739502 22.71650146 -36.97808105 22.1173291 -36 21.5 C-35.02554932 20.88213623 -34.05109863 20.26427246 -33.04711914 19.62768555 C-24.44015075 14.20620939 -15.69173537 9.05252108 -6.83154297 4.05712891 C-5.22574471 3.1302952 -3.65788132 2.13837064 -2.09765625 1.13671875 C-1.40542969 0.76160156 -0.71320313 0.38648437 0 0 Z " fill="#ECD064" transform="translate(255,77)"/>
<path d="M0 0 C0.6909375 0.7115625 1.381875 1.423125 2.09375 2.15625 C10.8507711 10.88867273 20.0038254 17.5064332 32 21 C32.7425 21.23074219 33.485 21.46148437 34.25 21.69921875 C41.60680147 23.66381914 49.43104228 23.64709154 57 24 C51.35148246 27.76567836 44.52841305 26.44278676 38.07421875 25.3125 C23.62441773 22.16548416 11.90923345 16.08736707 2 5 C0.6640625 2.16015625 0.6640625 2.16015625 0 0 Z " fill="#56B2A7" transform="translate(203,286)"/>
<path d="M0 0 C3.4564757 1.02529167 4.15355273 2.25719349 6.04296875 5.421875 C6.76752425 6.85973044 7.48181047 8.30279193 8.1875 9.75 C11.51972625 16.34337439 15.12590578 22.58334312 19.2565918 28.70800781 C22 32.81114955 22 32.81114955 22 35 C22.66 35 23.32 35 24 35 C24.79664063 36.48693359 24.79664063 36.48693359 25.609375 38.00390625 C28.0795647 42.32673822 31.09865007 46.09632108 34.25 49.9375 C34.80429688 50.62134766 35.35859375 51.30519531 35.9296875 52.00976562 C37.28198195 53.67681826 38.64036125 55.3389319 40 57 C39.505 57.99 39.505 57.99 39 59 C26.95951263 45.39913999 17.0925247 30.69708584 8 15 C7.61618164 14.34064453 7.23236328 13.68128906 6.83691406 13.00195312 C5.69952851 11.0453848 4.56698464 9.08613869 3.4375 7.125 C3.09050049 6.52349121 2.74350098 5.92198242 2.38598633 5.30224609 C0 1.11988913 0 1.11988913 0 0 Z " fill="#C7CA8B" transform="translate(112,287)"/>
<path d="M0 0 C0.66 0.33 1.32 0.66 2 1 C1.34386719 1.65355469 0.68773437 2.30710937 0.01171875 2.98046875 C-2.31222118 5.30277038 -4.6164625 7.6437562 -6.91796875 9.98828125 C-8.34104467 11.42978738 -9.76422394 12.87119148 -11.1875 14.3125 C-12.27321289 15.42334961 -12.27321289 15.42334961 -13.38085938 16.55664062 C-14.07373047 17.25595703 -14.76660156 17.95527344 -15.48046875 18.67578125 C-16.10848389 19.31427002 -16.73649902 19.95275879 -17.38354492 20.6105957 C-19 22 -19 22 -21 22 C-21.25523438 22.51046875 -21.51046875 23.0209375 -21.7734375 23.546875 C-24.515625 29.03125 -27.2578125 34.515625 -30 40 C-30.66 40 -31.32 40 -32 40 C-27.77565174 23.9474766 -13.51427097 9.00951398 0 0 Z " fill="#F0C94A" transform="translate(98,63)"/>
<path d="M0 0 C3.34373475 0.55728913 6.03312999 1.35173889 9 3 C9 3.66 9 4.32 9 5 C9.721875 5.2475 10.44375 5.495 11.1875 5.75 C14.29947889 7.13310173 16.36431503 8.84114122 19 11 C21.21927857 12.74198868 23.45344594 14.4645206 25.6875 16.1875 C26.26822266 16.63802734 26.84894531 17.08855469 27.44726562 17.55273438 C30.58230173 19.99433695 30.58230173 19.99433695 34 22 C34 22.66 34 23.32 34 24 C34.57234375 24.25523437 35.1446875 24.51046875 35.734375 24.7734375 C38.24173733 26.13087159 40.1330456 27.71974104 42.25 29.625 C42.95640625 30.25664062 43.6628125 30.88828125 44.390625 31.5390625 C44.92171875 32.02117187 45.4528125 32.50328125 46 33 C45.67 33.99 45.34 34.98 45 36 C44.50113281 35.46632812 44.00226563 34.93265625 43.48828125 34.3828125 C37.18804238 27.84504218 30.29951063 22.35515505 23 17 C22.25347168 16.45166504 21.50694336 15.90333008 20.73779297 15.33837891 C18.32917198 13.57421485 15.91603102 11.81650086 13.5 10.0625 C12.35156616 9.2286377 12.35156616 9.2286377 11.17993164 8.37792969 C8.15620961 6.19986162 5.16733243 4.10027008 1.96875 2.18359375 C1.3190625 1.79300781 0.669375 1.40242188 0 1 C0 0.67 0 0.34 0 0 Z " fill="#C9C77F" transform="translate(275,125)"/>
<path d="M0 0 C0 0.66 0 1.32 0 2 C-0.60585938 2.21914062 -1.21171875 2.43828125 -1.8359375 2.6640625 C-9.44462991 5.54365993 -17.38843597 8.919302 -23 15 C-22.28972656 15.33773437 -21.57945312 15.67546875 -20.84765625 16.0234375 C-19.92855469 16.46945313 -19.00945312 16.91546875 -18.0625 17.375 C-17.14597656 17.81585938 -16.22945313 18.25671875 -15.28515625 18.7109375 C-13 20 -13 20 -12 22 C-18.16529701 21.68383092 -22.17268433 18.50784939 -27 15 C-25.74221445 11.22664334 -24.65382867 10.9532864 -21.23046875 9.08203125 C-20.25916016 8.55029297 -19.28785156 8.01855469 -18.28710938 7.47070312 C-17.26423828 6.92349609 -16.24136719 6.37628906 -15.1875 5.8125 C-13.6705957 4.97428711 -13.6705957 4.97428711 -12.12304688 4.11914062 C-4.51345009 0 -4.51345009 0 0 0 Z " fill="#D3C769" transform="translate(289,103)"/>
<path d="M0 0 C5.50812355 0.89354004 8.51571214 4.92264186 12 9 C16.35590129 15.06170878 23.83827758 25.68796735 22.62890625 33.3515625 C22.31759766 34.16753906 22.31759766 34.16753906 22 35 C22 34.01 22 33.02 22 32 C21.34 32 20.68 32 20 32 C19.56300781 30.74896484 19.56300781 30.74896484 19.1171875 29.47265625 C16.30784992 21.76022948 13.34416801 14.18252454 7.3203125 8.3828125 C6 7 6 7 6 5 C5.34 5 4.68 5 4 5 C4 4.34 4 3.68 4 3 C2.68 2.34 1.36 1.68 0 1 C0 0.67 0 0.34 0 0 Z " fill="#F2D163" transform="translate(288,204)"/>
<path d="M0 0 C0.33 0 0.66 0 1 0 C1.01417969 1.10214844 1.02835938 2.20429688 1.04296875 3.33984375 C1.43560517 18.31326657 4.44466958 31.91481072 12 45 C8.4416271 43.8138757 7.98097273 42.61006698 6.34570312 39.375 C5.89614258 38.446875 5.89614258 38.446875 5.4375 37.5 C5.13392578 36.9121875 4.83035156 36.324375 4.51757812 35.71875 C0.35971097 27.31243034 -0.29278586 19.21089536 -0.125 9.9375 C-0.11597656 8.97650391 -0.10695312 8.01550781 -0.09765625 7.02539062 C-0.07435208 4.68332195 -0.04164058 2.34180208 0 0 Z " fill="#57B3A7" transform="translate(191,240)"/>
<path d="M0 0 C1.88627002 2.82940503 2.77005484 4.98917082 3.8046875 8.19140625 C4.14113281 9.21943359 4.47757812 10.24746094 4.82421875 11.30664062 C5.17097656 12.38107422 5.51773438 13.45550781 5.875 14.5625 C8.12037521 21.49925801 10.43745665 28.33240135 13.27001953 35.05444336 C14 37 14 37 14 39 C13.34 39 12.68 39 12 39 C4.58974651 21.6823391 4.58974651 21.6823391 2.60546875 13.19921875 C2.07230501 10.96502768 2.07230501 10.96502768 0.93359375 8.94140625 C-0.48164268 5.99842505 -0.12342155 3.20896025 0 0 Z " fill="#F1D060" transform="translate(87,166)"/>
<path d="M0 0 C0 0.33 0 0.66 0 1 C-1.28132813 1.02578125 -2.56265625 1.0515625 -3.8828125 1.078125 C-14.57901676 1.39223141 -23.84662371 2.43150568 -34 6 C-35.99976896 6.66735939 -37.99970165 7.33422906 -40 8 C-40 7.01 -40 6.02 -40 5 C-27.19641465 -1.5181889 -14.03264626 -0.51439319 0 0 Z " fill="#F2D36E" transform="translate(160,74)"/>
<path d="M0 0 C0.33 0.66 0.66 1.32 1 2 C-1.27273075 6.63637074 -3.98360687 10.25683269 -7.40625 14.08984375 C-10.25436128 17.50338889 -12.60788512 21.2591395 -15 25 C-16 23 -16 23 -15.3671875 20.78125 C-13.68206003 17.35321925 -11.49113916 14.47319527 -9.125 11.5 C-8.69058594 10.94441406 -8.25617188 10.38882813 -7.80859375 9.81640625 C-5.22979807 6.5251505 -2.61641905 3.26139677 0 0 Z " fill="#F2D052" transform="translate(151,154)"/>
<path d="M0 0 C0.309375 0.639375 0.61875 1.27875 0.9375 1.9375 C1.8345163 3.93610821 1.8345163 3.93610821 3 5 C3.12375 6.03125 3.2475 7.0625 3.375 8.125 C3.91405506 11.46714136 4.7662841 13.80511107 6.1640625 16.8359375 C8.28030426 22.31443252 10.89278883 29.32163351 9 35 C7.86727048 31.69009373 6.74527301 28.37664098 5.625 25.0625 C5.30789062 24.13630859 4.99078125 23.21011719 4.6640625 22.25585938 C-0.45533259 7.05765519 -0.45533259 7.05765519 0 0 Z " fill="#F1D063" transform="translate(60,164)"/>
<path d="M0 0 C0.33 0 0.66 0 1 0 C1 9.24 1 18.48 1 28 C0.34 28 -0.32 28 -1 28 C-1.90972518 18.31265619 -2.19722582 9.58789448 0 0 Z " fill="#F0C94D" transform="translate(84,125)"/>
<path d="M0 0 C0.66 0.33 1.32 0.66 2 1 C-0.20473845 4.30710767 -1.59874926 5.07248555 -5.0625 6.875 C-6.0421875 7.39191406 -7.021875 7.90882812 -8.03125 8.44140625 C-9.0109375 8.95574219 -9.990625 9.47007813 -11 10 C-12.69042326 10.93221871 -14.37823427 11.86920182 -16.0625 12.8125 C-18.029326 13.91150404 -19.98482889 14.99241445 -22 16 C-22 15.01 -22 14.02 -22 13 C-19.66984535 11.37159077 -17.40349083 9.95470406 -14.9375 8.5625 C-14.28072266 8.18029297 -13.62394531 7.79808594 -12.94726562 7.40429688 C-11.62779236 6.63861239 -10.30403408 5.88026405 -8.97607422 5.12939453 C-7.64383254 4.36797249 -6.32252929 3.58712728 -5.01220703 2.78857422 C-3.37516521 1.80091637 -1.69064019 0.89280999 0 0 Z " fill="#E4C95C" transform="translate(255,77)"/>
<path d="M0 0 C3.42559084 1.20358597 5.53258609 2.35892646 8 5 C2.50650211 8.81492909 -2.95092327 12.14043646 -9 15 C-9 14.01 -9 13.02 -9 12 C-8.34 12 -7.68 12 -7 12 C-7 11.34 -7 10.68 -7 10 C-0.375 7 -0.375 7 3 7 C3 6.01 3 5.02 3 4 C1.05990478 2.29467677 1.05990478 2.29467677 -1 1 C-0.67 0.67 -0.34 0.34 0 0 Z " fill="#EFCC54" transform="translate(233,70)"/>
<path d="M0 0 C2.631724 2.45627573 4.81527263 4.55352037 6 8 C5.625 10.25 5.625 10.25 5 12 C2 7.375 2 7.375 2 4 C1.34 4 0.68 4 0 4 C-0.226875 5.051875 -0.45375 6.10375 -0.6875 7.1875 C-1.79360531 11.1597906 -3.88629885 13.29599637 -7 16 C-5.26017005 10.18738629 -3.1889511 5.16830006 0 0 Z " fill="#E5D079" transform="translate(87,262)"/>
<path d="M0 0 C0.33 0.99 0.66 1.98 1 3 C-0.29296875 4.8671875 -0.29296875 4.8671875 -2.1875 6.875 C-4.2146629 9.06577251 -6.13548107 11.17918465 -7.9375 13.5625 C-10.90036984 17.06407344 -14.16087539 20.46160549 -18 23 C-18.99 22.67 -19.98 22.34 -21 22 C-20.55011719 21.63390625 -20.10023438 21.2678125 -19.63671875 20.890625 C-15.14737031 17.11201509 -11.08141429 13.07227626 -7.125 8.75 C-6.64893311 8.23083008 -6.17286621 7.71166016 -5.68237305 7.17675781 C-3.58719297 4.86188239 -1.73590006 2.60385009 0 0 Z " fill="#59AC9A" transform="translate(335,323)"/>
<path d="M0 0 C0.33 0 0.66 0 1 0 C1 1.65 1 3.3 1 5 C1.99 5.33 2.98 5.66 4 6 C5.5625 8.8125 5.5625 8.8125 7 12 C7.391875 12.70125 7.78375 13.4025 8.1875 14.125 C9 16 9 16 9 20 C9.66 20 10.32 20 11 20 C11 21.65 11 23.3 11 25 C8.12121262 21.44225333 6.02093249 17.5831757 3.875 13.5625 C3.51535156 12.90701172 3.15570313 12.25152344 2.78515625 11.57617188 C0.92203346 8.09764487 -0.62643755 4.99711825 -1 1 C-0.67 0.67 -0.34 0.34 0 0 Z " fill="#EFCA54" transform="translate(86,233)"/>
<path d="M0 0 C0.99 0.33 1.98 0.66 3 1 C0.26484073 3.04155642 -2.49022812 5.05437331 -5.25 7.0625 C-6.02730469 7.64322266 -6.80460938 8.22394531 -7.60546875 8.82226562 C-8.35957031 9.36689453 -9.11367187 9.91152344 -9.890625 10.47265625 C-10.58188477 10.98062744 -11.27314453 11.48859863 -11.98535156 12.01196289 C-14 13 -14 13 -16.25683594 12.65795898 C-16.83208008 12.44083252 -17.40732422 12.22370605 -18 12 C-15.37642639 10.18542845 -12.75090247 8.3736994 -10.125 6.5625 C-9.37863281 6.04623047 -8.63226563 5.52996094 -7.86328125 4.99804688 C-7.14785156 4.50498047 -6.43242187 4.01191406 -5.6953125 3.50390625 C-5.03547363 3.04830322 -4.37563477 2.5927002 -3.69580078 2.12329102 C-2 1 -2 1 0 0 Z " fill="#DFCA65" transform="translate(219,129)"/>
<path d="M0 0 C1.24155942 3.72467827 0.57488798 5.40101992 -0.375 9.1875 C-2.18842342 17.11191194 -2.69471968 24.89428105 -3 33 C-3.33 33 -3.66 33 -4 33 C-4.38297872 11.27659574 -4.38297872 11.27659574 -2 2 C-1.34 2 -0.68 2 0 2 C0 1.34 0 0.68 0 0 Z " fill="#D0C362" transform="translate(63,325)"/>
<path d="M0 0 C0.66 0 1.32 0 2 0 C2.15855469 0.60585937 2.31710938 1.21171875 2.48046875 1.8359375 C4.08465836 7.59683943 6.1850054 12.69888912 9.01171875 17.96875 C10 20 10 20 10 22 C9.34 22 8.68 22 8 22 C6.65144106 19.46543163 5.32124783 16.92375848 4 14.375 C3.6184375 13.66214844 3.236875 12.94929687 2.84375 12.21484375 C0.65813122 7.9606929 -0.49539983 4.9075546 0 0 Z " fill="#E5C757" transform="translate(115,208)"/>
<path d="M0 0 C0.99 0.33 1.98 0.66 3 1 C-0.78746481 4.07980691 -4.9955125 6.330995 -9.25 8.6875 C-9.99507813 9.10322266 -10.74015625 9.51894531 -11.5078125 9.94726562 C-13.33709487 10.96744233 -15.16835302 11.98407487 -17 13 C-17.33 12.01 -17.66 11.02 -18 10 C-16.25048432 9.04078278 -14.50036756 8.08266183 -12.75 7.125 C-11.28820312 6.32449219 -11.28820312 6.32449219 -9.796875 5.5078125 C-8.87390625 5.01023437 -7.9509375 4.51265625 -7 4 C-6.28328125 3.60554688 -5.5665625 3.21109375 -4.828125 2.8046875 C-3 2 -3 2 0 2 C0 1.34 0 0.68 0 0 Z " fill="#D1C35D" transform="translate(266,100)"/>
<path d="M0 0 C0.66 0.33 1.32 0.66 2 1 C-0.4293086 3.48730862 -2.86977494 5.96337167 -5.3125 8.4375 C-6.34793945 9.49807617 -6.34793945 9.49807617 -7.40429688 10.58007812 C-8.07138672 11.25361328 -8.73847656 11.92714844 -9.42578125 12.62109375 C-10.03848877 13.2442749 -10.65119629 13.86745605 -11.2824707 14.50952148 C-13 16 -13 16 -16 17 C-14.43122496 13.20144921 -12.03476878 10.79977997 -9.125 7.9375 C-8.26132813 7.08027344 -7.39765625 6.22304687 -6.5078125 5.33984375 C-4.41510391 3.387301 -2.33074012 1.65319939 0 0 Z " fill="#B5BE7E" transform="translate(218,199)"/>
<path d="M0 0 C8.61733654 5.23423404 15.94421093 11.82739323 23 19 C18.86788268 17.62018107 16.3330268 15.73799638 13.1875 12.75 C9.42839441 9.25014307 5.61654946 6.11740882 1.3984375 3.19140625 C0.93695313 2.79824219 0.47546875 2.40507813 0 2 C0 1.34 0 0.68 0 0 Z " fill="#C1C88E" transform="translate(313,119)"/>
<path d="M0 0 C-2.62042843 1.67394001 -5.24705905 3.3378835 -7.875 5 C-8.62136719 5.47695312 -9.36773437 5.95390625 -10.13671875 6.4453125 C-10.85214844 6.89648438 -11.56757813 7.34765625 -12.3046875 7.8125 C-13.2944458 8.44091797 -13.2944458 8.44091797 -14.30419922 9.08203125 C-16 10 -16 10 -18 10 C-16.55366256 6.39588346 -14.80863332 4.88597432 -11.5625 2.8125 C-10.78003906 2.30332031 -9.99757812 1.79414062 -9.19140625 1.26953125 C-5.70991411 -0.74737596 -3.79020963 -1.17627195 0 0 Z " fill="#DBCC6D" transform="translate(246,115)"/>
<path d="M0 0 C2.8301913 3.38263104 4.5032781 7.09118459 6.1875 11.125 C6.46013672 11.75792969 6.73277344 12.39085937 7.01367188 13.04296875 C9 17.7324953 9 17.7324953 9 20 C8.34 20 7.68 20 7 20 C5.8212678 17.60945893 4.65697003 15.21354785 3.5 12.8125 C3.16613281 12.13896484 2.83226563 11.46542969 2.48828125 10.77148438 C0.70299868 7.03696471 -0.46127195 4.24205451 0 0 Z " fill="#F0CD57" transform="translate(101,205)"/>
<path d="M0 0 C3.465 1.98 3.465 1.98 7 4 C7 4.66 7 5.32 7 6 C7.57234375 6.25523437 8.1446875 6.51046875 8.734375 6.7734375 C11.24173733 8.13087159 13.1330456 9.71974104 15.25 11.625 C15.95640625 12.25664062 16.6628125 12.88828125 17.390625 13.5390625 C17.92171875 14.02117187 18.4528125 14.50328125 19 15 C18.67 15.99 18.34 16.98 18 18 C17.45472656 17.43152344 16.90945313 16.86304688 16.34765625 16.27734375 C11.71441577 11.5332223 7.02853525 7.29755626 1.65234375 3.41015625 C1.10707031 2.94480469 0.56179688 2.47945312 0 2 C0 1.34 0 0.68 0 0 Z " fill="#B9C589" transform="translate(302,143)"/>
<path d="M0 0 C0.99 0 1.98 0 3 0 C1.58319756 4.32046898 -0.53763785 7.00461199 -3.625 10.3125 C-4.44226563 11.19550781 -5.25953125 12.07851563 -6.1015625 12.98828125 C-7.04128906 13.98408203 -7.04128906 13.98408203 -8 15 C-8.33 14.01 -8.66 13.02 -9 12 C-8.360625 11.7525 -7.72125 11.505 -7.0625 11.25 C-4.85101127 10.22926762 -4.85101127 10.22926762 -4.5 8.25 C-4.335 7.5075 -4.17 6.765 -4 6 C-2.125 2.75 -2.125 2.75 0 0 Z " fill="#45B0A1" transform="translate(426,411)"/>
<path d="M0 0 C0.33 0 0.66 0 1 0 C1.2000026 3.14516565 1.38264359 6.29112312 1.5625 9.4375 C1.61857422 10.31599609 1.67464844 11.19449219 1.73242188 12.09960938 C2.05235124 17.87966658 1.78786247 23.26319401 1 29 C0.67 29 0.34 29 0 29 C-1.38297872 9.65957447 -1.38297872 9.65957447 0 0 Z " fill="#D8D399" transform="translate(58,344)"/>
<path d="M0 0 C0.33 0.66 0.66 1.32 1 2 C0.14231995 3.6124385 -0.73174893 5.21779998 -1.67578125 6.78125 C-3.27537227 9.4613907 -4.76165158 12.19413094 -6.25 14.9375 C-6.77078125 15.89527344 -7.2915625 16.85304688 -7.828125 17.83984375 C-8.40820312 18.90912109 -8.40820312 18.90912109 -9 20 C-9.66 20 -10.32 20 -11 20 C-9.04164852 12.55826439 -4.66218707 6.03996772 0 0 Z " fill="#EFCE61" transform="translate(77,83)"/>
<path d="M0 0 C0 0.66 0 1.32 0 2 C-2.62168311 3.03016022 -5.24673881 4.04938394 -7.875 5.0625 C-8.99455078 5.50432617 -8.99455078 5.50432617 -10.13671875 5.95507812 C-12.06975563 6.69520486 -14.03365032 7.35355735 -16 8 C-16.66 7.67 -17.32 7.34 -18 7 C-16.44163016 3.88326031 -13.87664341 3.58822252 -10.6875 2.375 C-9.53636719 1.92898437 -8.38523437 1.48296875 -7.19921875 1.0234375 C-4 0 -4 0 0 0 Z " fill="#CDC573" transform="translate(311,81)"/>
<path d="M0 0 C0.99 0 1.98 0 3 0 C3.84678051 1.86896555 4.67686211 3.74550181 5.5 5.625 C5.9640625 6.66914063 6.428125 7.71328125 6.90625 8.7890625 C8.02767398 12.08124291 8.207138 14.55115223 8 18 C5.84575398 14.76863097 4.37764626 11.43389904 2.875 7.875 C2.59785156 7.22917969 2.32070312 6.58335937 2.03515625 5.91796875 C0 1.13585283 0 1.13585283 0 0 Z " fill="#F1CE5B" transform="translate(71,203)"/>
<path d="M0 0 C0.33 0 0.66 0 1 0 C0.67 2.97 0.34 5.94 0 9 C-0.66 9 -1.32 9 -2 9 C-1.938125 10.093125 -1.87625 11.18625 -1.8125 12.3125 C-2 16 -2 16 -3.5 17.9375 C-3.995 18.288125 -4.49 18.63875 -5 19 C-4.48378772 12.16018724 -2.51409031 6.36123316 0 0 Z " fill="#F1CB59" transform="translate(65,103)"/>
<path d="M0 0 C5.72210596 1.86763181 11.37661751 3.85289032 17 6 C17 6.33 17 6.66 17 7 C12.28596212 6.52060632 8.33420699 6.03165952 4 4 C4 3.34 4 2.68 4 2 C1.69 2.33 -0.62 2.66 -3 3 C-2.01 2.01 -1.02 1.02 0 0 Z " fill="#4FB5A9" transform="translate(287,410)"/>
<path d="M0 0 C0.99 0.33 1.98 0.66 3 1 C0.73692309 2.53363072 -1.53416825 4.05184259 -3.8125 5.5625 C-4.45509766 6.00013672 -5.09769531 6.43777344 -5.75976562 6.88867188 C-7.4567518 8.00534154 -9.22577058 9.01064506 -11 10 C-11.99 9.67 -12.98 9.34 -14 9 C-11.73692309 7.46636928 -9.46583175 5.94815741 -7.1875 4.4375 C-6.54490234 3.99986328 -5.90230469 3.56222656 -5.24023438 3.11132812 C-3.5432482 1.99465846 -1.77422942 0.98935494 0 0 Z " fill="#51B2A3" transform="translate(293,393)"/>
<path d="M0 0 C0.66 0 1.32 0 2 0 C3.625 2 3.625 2 5 4 C5.33 3.34 5.66 2.68 6 2 C6.66 2 7.32 2 8 2 C7.50168276 5.68754757 6.89932357 7.60490662 4 10 C0 3.375 0 3.375 0 0 Z " fill="#DCCC77" transform="translate(124,230)"/>
<path d="M0 0 C3.69876091 1.37287342 6.9514476 3.06355453 10.3125 5.125 C11.19550781 5.66382813 12.07851562 6.20265625 12.98828125 6.7578125 C13.65214844 7.16773438 14.31601563 7.57765625 15 8 C14.67 8.99 14.34 9.98 14 11 C10.9375 12.1875 10.9375 12.1875 8 13 C8.495 12.54625 8.99 12.0925 9.5 11.625 C11.22609337 10.12364481 11.22609337 10.12364481 11 8 C9.21298942 6.74387081 7.36907362 5.56791195 5.5 4.4375 C3.65213658 3.31524962 1.81455865 2.17533912 0 1 C0 0.67 0 0.34 0 0 Z " fill="#84B79A" transform="translate(227,375)"/>
<path d="M0 0 C0.33 0.99 0.66 1.98 1 3 C-2.3 6.63 -5.6 10.26 -9 14 C-9.33 13.01 -9.66 12.02 -10 11 C-6.7 7.37 -3.4 3.74 0 0 Z " fill="#42AD9F" transform="translate(358,335)"/>
<path d="M0 0 C0.66 0.33 1.32 0.66 2 1 C1.06398754 2.41764994 0.1261208 3.83407568 -0.8125 5.25 C-1.33457031 6.03890625 -1.85664063 6.8278125 -2.39453125 7.640625 C-5.5139589 12.22489337 -5.5139589 12.22489337 -7 14 C-7.66 14 -8.32 14 -9 14 C-7.65070536 10.16336928 -5.92248975 7.34827431 -3.375 4.1875 C-2.42753906 3.00220703 -2.42753906 3.00220703 -1.4609375 1.79296875 C-0.97882813 1.20128906 -0.49671875 0.60960937 0 0 Z " fill="#50B2A6" transform="translate(369,320)"/>
<path d="M0 0 C6.30399313 -0.45028522 10.71378634 0.38797371 16 4 C16.33 4.66 16.66 5.32 17 6 C5.47835991 2.92482916 5.47835991 2.92482916 0 1 C0 0.67 0 0.34 0 0 Z " fill="#F1D16A" transform="translate(183,79)"/>
<path d="M0 0 C6.7281627 -0.22262303 12.53991163 0.04978464 19 2 C19 2.66 19 3.32 19 4 C12.60794144 3.27637073 6.31972924 2.19656638 0 1 C0 0.67 0 0.34 0 0 Z " fill="#F1D167" transform="translate(164,75)"/>
<path d="M0 0 C-7.92 3.96 -7.92 3.96 -16 8 C-16 7.34 -16 6.68 -16 6 C-15.34 6 -14.68 6 -14 6 C-14 5.34 -14 4.68 -14 4 C-12.42466914 3.13116294 -10.83935491 2.28040932 -9.25 1.4375 C-8.36828125 0.96183594 -7.4865625 0.48617188 -6.578125 -0.00390625 C-4 -1 -4 -1 0 0 Z " fill="#5AB5A2" transform="translate(253,421)"/>
<path d="M0 0 C0.33 0 0.66 0 1 0 C0.50341703 5.66104589 -0.54510684 9.87674471 -3 15 C-3.66 15 -4.32 15 -5 15 C-4.54705135 13.24859857 -4.08741252 11.49892656 -3.625 9.75 C-3.36976562 8.77546875 -3.11453125 7.8009375 -2.8515625 6.796875 C-2.10401491 4.34162697 -1.22876183 2.24382595 0 0 Z " fill="#CDC36C" transform="translate(93,310)"/>
<path d="M0 0 C5.65020618 0.60108576 10.66164461 2.07528683 16 4 C16 4.33 16 4.66 16 5 C14.741875 5.04125 13.48375 5.0825 12.1875 5.125 C11.47980469 5.14820313 10.77210938 5.17140625 10.04296875 5.1953125 C8 5 8 5 5 3 C3.34450469 2.61500109 1.6777567 2.27206865 0 2 C0 1.34 0 0.68 0 0 Z " fill="#F0CF55" transform="translate(188,53)"/>
<path d="M0 0 C0.66 0 1.32 0 2 0 C6.59225513 9.41002278 6.59225513 9.41002278 6 14 C3.894132 11.894132 3.07247753 10.2634771 1.875 7.5625 C1.52179688 6.78003906 1.16859375 5.99757813 0.8046875 5.19140625 C0 3 0 3 0 0 Z " fill="#4FB1A5" transform="translate(399,288)"/>
<path d="M0 0 C3.74123976 4.2954975 6.34151874 8.99900452 9 14 C5.23193471 12.74397824 4.78753493 11.48987433 2.8125 8.125 C2.28269531 7.24070312 1.75289063 6.35640625 1.20703125 5.4453125 C0 3 0 3 0 0 Z " fill="#C8C87F" transform="translate(123,304)"/>
<path d="M0 0 C2.09749995 2.35968744 2.96905704 3.54616994 3.1875 6.75 C3.125625 7.4925 3.06375 8.235 3 9 C3.66 9 4.32 9 5 9 C5 10.65 5 12.3 5 14 C1.57068046 10.2440786 0.43570917 5.76533255 -1 1 C-0.67 0.67 -0.34 0.34 0 0 Z " fill="#F1CC56" transform="translate(80,220)"/>
<path d="M0 0 C0 3.37465686 -0.81493079 5.53965992 -2 8.6875 C-2.556875 10.17830078 -2.556875 10.17830078 -3.125 11.69921875 C-3.558125 12.83810547 -3.558125 12.83810547 -4 14 C-4.33 14 -4.66 14 -5 14 C-4.88490339 12.58249437 -4.75746342 11.16598831 -4.625 9.75 C-4.55539063 8.96109375 -4.48578125 8.1721875 -4.4140625 7.359375 C-3.9787895 4.87914019 -3.31630309 3.14017625 -2 1 C-1.34 0.67 -0.68 0.34 0 0 Z " fill="#E1CA5F" transform="translate(81,277)"/>
<path d="M0 0 C0.33 0.99 0.66 1.98 1 3 C-0.21484375 4.82421875 -0.21484375 4.82421875 -1.9375 6.6875 C-2.50339844 7.31011719 -3.06929688 7.93273437 -3.65234375 8.57421875 C-4.09707031 9.04472656 -4.54179687 9.51523437 -5 10 C-5.99 9.67 -6.98 9.34 -8 9 C-5.36 6.03 -2.72 3.06 0 0 Z " fill="#6EB7A7" transform="translate(335,323)"/>
<path d="M0 0 C0.66 0.33 1.32 0.66 2 1 C1.05065487 2.67180274 0.09026687 4.33733936 -0.875 6 C-1.40867187 6.928125 -1.94234375 7.85625 -2.4921875 8.8125 C-2.98976563 9.534375 -3.48734375 10.25625 -4 11 C-4.66 11 -5.32 11 -6 11 C-4.54955729 6.89041233 -2.48889248 3.56741255 0 0 Z " fill="#53B2A4" transform="translate(378,306)"/>
<path d="M0 0 C3.35250701 0.57575664 4.93818629 1.59306263 7.25 4.0625 C8.03117187 4.88427734 8.03117187 4.88427734 8.828125 5.72265625 C9.21484375 6.14417969 9.6015625 6.56570312 10 7 C9.67 7.99 9.34 8.98 9 10 C7.5 8.625 7.5 8.625 6 7 C6 6.34 6 5.68 6 5 C5.34 5 4.68 5 4 5 C4 4.34 4 3.68 4 3 C2.68 2.34 1.36 1.68 0 1 C0 0.67 0 0.34 0 0 Z " fill="#F0C746" transform="translate(288,204)"/>
<path d="M0 0 C0 3.49889647 -0.54120332 4.0553603 -2.75 6.625 C-3.26046875 7.23601562 -3.7709375 7.84703125 -4.296875 8.4765625 C-6.19607419 10.17538747 -7.51275949 10.5998787 -10 11 C-10 10.34 -10 9.68 -10 9 C-8.3203125 7.34375 -8.3203125 7.34375 -6.125 5.5 C-4.00964496 3.71066742 -1.95980876 1.95980876 0 0 Z " fill="#EDCB5B" transform="translate(169,136)"/>
<path d="M0 0 C0.66 0 1.32 0 2 0 C3.04976964 3.14930893 3.10131595 5.38814456 3.0625 8.6875 C3.05347656 9.68136719 3.04445313 10.67523438 3.03515625 11.69921875 C3.02355469 12.45847656 3.01195312 13.21773438 3 14 C2.67 14 2.34 14 2 14 C1.66179834 12.4176994 1.32964061 10.83410625 1 9.25 C0.814375 8.36828125 0.62875 7.4865625 0.4375 6.578125 C0 4 0 4 0 0 Z " fill="#5FBBAE" transform="translate(415,333)"/>
<path d="M0 0 C2 1 2 1 4 3 C4 4.32 4 5.64 4 7 C4.66 7 5.32 7 6 7 C6 8.65 6 10.3 6 12 C0 4.28571429 0 4.28571429 0 0 Z " fill="#EDD370" transform="translate(91,246)"/>
<path d="M0 0 C0.33 0.66 0.66 1.32 1 2 C-1.19566645 8.47143795 -1.19566645 8.47143795 -4.1875 10.4375 C-5.0846875 10.7159375 -5.0846875 10.7159375 -6 11 C-4.54955729 6.89041233 -2.48889248 3.56741255 0 0 Z " fill="#F0D160" transform="translate(135,175)"/>
<path d="M0 0 C-1.49097658 3.7952131 -3.75700849 5.61042731 -7 8 C-6.62952882 5.25851328 -6.31412056 3.41406801 -4.625 1.1875 C-3 0 -3 0 0 0 Z " fill="#E8D16C" transform="translate(186,156)"/>
<path d="M0 0 C1.46067199 0.45082469 2.91848032 0.91093537 4.375 1.375 C5.18710938 1.63023438 5.99921875 1.88546875 6.8359375 2.1484375 C9 3 9 3 11 5 C2.42857143 4.28571429 2.42857143 4.28571429 -1 1 C-0.67 0.67 -0.34 0.34 0 0 Z " fill="#F1CE56" transform="translate(222,65)"/>
<path d="M0 0 C-0.33 1.98 -0.66 3.96 -1 6 C-3.475 5.01 -3.475 5.01 -6 4 C-2.25 0 -2.25 0 0 0 Z " fill="#4CB0A1" transform="translate(268,423)"/>
<path d="M0 0 C0.66 0 1.32 0 2 0 C1.40072174 3.35595828 0.15377564 5.37801226 -2 8 C-2.99 7.67 -3.98 7.34 -5 7 C-4.21654285 5.82780457 -3.42297164 4.66236332 -2.625 3.5 C-2.18414062 2.8503125 -1.74328125 2.200625 -1.2890625 1.53125 C-0.65097656 0.77328125 -0.65097656 0.77328125 0 0 Z " fill="#62B29F" transform="translate(347,307)"/>
<path d="M0 0 C0.33 0.99 0.66 1.98 1 3 C-1.31 4.98 -3.62 6.96 -6 9 C-6 6 -6 6 -4.6875 4.39453125 C-4.130625 3.87246094 -3.57375 3.35039062 -3 2.8125 C-2.443125 2.28269531 -1.88625 1.75289062 -1.3125 1.20703125 C-0.6628125 0.60955078 -0.6628125 0.60955078 0 0 Z " fill="#A6BB8A" transform="translate(209,207)"/>
<path d="M0 0 C1.36959468 3.11271517 0.90994332 4.25666155 -0.25 7.5625 C-1.72532525 10.46046031 -2.70555087 11.87956808 -5 14 C-3.45730076 9.27934033 -1.92205381 4.58335908 0 0 Z " fill="#7FBAA0" transform="translate(408,189)"/>
<path d="M0 0 C0.99 0.33 1.98 0.66 3 1 C1.02 3.97 -0.96 6.94 -3 10 C-3.33 9.34 -3.66 8.68 -4 8 C-2.98446183 4.9533855 -1.79237442 2.68856164 0 0 Z " fill="#F1CB45" transform="translate(139,169)"/>
<path d="M0 0 C0.33 1.32 0.66 2.64 1 4 C-1.97 6.475 -1.97 6.475 -5 9 C-4.67 7.35 -4.34 5.7 -4 4 C-3.34 4 -2.68 4 -2 4 C-1.34 2.68 -0.68 1.36 0 0 Z " fill="#E3CB60" transform="translate(178,161)"/>
<path d="M0 0 C0 0.66 0 1.32 0 2 C-0.99 2 -1.98 2 -3 2 C-3 2.66 -3 3.32 -3 4 C-5.64 4.66 -8.28 5.32 -11 6 C-7.87921364 2.5324596 -4.85451611 0 0 0 Z " fill="#EDCB5A" transform="translate(113,56)"/>
<path d="M0 0 C0.99 0 1.98 0 3 0 C6.07692308 5.41538462 6.07692308 5.41538462 5.6875 8.375 C5.460625 8.91125 5.23375 9.4475 5 10 C2 5.375 2 5.375 2 2 C1.34 2 0.68 2 0 2 C0 1.34 0 0.68 0 0 Z " fill="#E4CD62" transform="translate(87,264)"/>
<path d="M0 0 C-1.36983503 3.16115776 -1.9890638 3.9927092 -5 6 C-7.1875 5.625 -7.1875 5.625 -9 5 C-7.87926138 4.16094435 -6.75325453 3.32892169 -5.625 2.5 C-4.99851563 2.0359375 -4.37203125 1.571875 -3.7265625 1.09375 C-2 0 -2 0 0 0 Z " fill="#DCC44E" transform="translate(210,136)"/>
<path d="M0 0 C3.94727588 -0.17942163 6.5980513 -0.09350689 10 2 C10 2.66 10 3.32 10 4 C6.44219804 3.39009109 3.3171411 2.4216319 0 1 C0 0.67 0 0.34 0 0 Z " fill="#F1CC53" transform="translate(201,85)"/>
<path d="M0 0 C0.33 1.32 0.66 2.64 1 4 C-1.97 6.475 -1.97 6.475 -5 9 C-4.6875 7.0625 -4.6875 7.0625 -4 5 C-3.01 4.67 -2.02 4.34 -1 4 C-0.26676204 1.98491642 -0.26676204 1.98491642 0 0 Z " fill="#51B3A5" transform="translate(422,417)"/>
<path d="M0 0 C-4.75 4 -4.75 4 -7 4 C-6.625 2.0625 -6.625 2.0625 -6 0 C-3.50907189 -1.24546405 -2.58919267 -0.7767578 0 0 Z " fill="#E4CD6E" transform="translate(204,143)"/>
<path d="M0 0 C0.33 0 0.66 0 1 0 C1.25 2.75 1.25 2.75 1 6 C-1 8.375 -1 8.375 -3 10 C-2.21302675 6.58978257 -1.12880057 3.31114834 0 0 Z " fill="#CEC05E" transform="translate(100,292)"/>
<path d="M0 0 C2.97903734 2.97903734 4 5.80285329 4 10 C3.34 10 2.68 10 2 10 C1.34 6.7 0.68 3.4 0 0 Z " fill="#EFC130" transform="translate(69,193)"/>
<path d="M0 0 C-3.96 1.98 -3.96 1.98 -8 4 C-8 3.01 -8 2.02 -8 1 C-4.59449725 -1.06762667 -4.18836538 -1.04709135 0 0 Z " fill="#D7C86D" transform="translate(256,109)"/>
<path d="M0 0 C-5.2734375 3.22265625 -5.2734375 3.22265625 -7 4 C-7.66 3.67 -8.32 3.34 -9 3 C-5.83583464 -0.30799106 -4.50236011 -1.35070803 0 0 Z " fill="#D5CB6C" transform="translate(278,97)"/>
<path d="M0 0 C0.99 0.33 1.98 0.66 3 1 C0.31158141 3.25245881 -1.64641875 4.88213958 -5 6 C-5 5.01 -5 4.02 -5 3 C-3.35 2.67 -1.7 2.34 0 2 C0 1.34 0 0.68 0 0 Z " fill="#F1D25F" transform="translate(236,75)"/>
</svg>
